<?xml version="1.0" standalone="no"?>
<!DOCTYPE svg PUBLIC "-//W3C//DTD SVG 20010904//EN"
 "http://www.w3.org/TR/2001/REC-SVG-20010904/DTD/svg10.dtd">
<svg version="1.0" xmlns="http://www.w3.org/2000/svg"
 width="2560.000000pt" height="1440.000000pt" viewBox="0 0 2560.000000 1440.000000"
 preserveAspectRatio="xMidYMid meet">

<g transform="translate(0.000000,1440.000000) scale(0.100000,-0.100000)"
fill="#000000" stroke="none">
<path d="M0 7200 l0 -7200 12800 0 12800 0 0 7200 0 7200 -12800 0 -12800 0 0
-7200z m13020 5528 c-18 -39 -26 -78 -16 -78 2 0 20 7 39 15 38 16 117 21 117
7 0 -4 -12 -15 -27 -24 l-28 -17 48 -1 c26 0 73 -9 104 -20 32 -11 77 -20 100
-20 54 0 55 -16 3 -39 l-40 -18 75 -72 c41 -39 83 -71 93 -71 15 -1 15 -2 -2
-15 -11 -8 -28 -15 -39 -15 -14 0 -6 -15 38 -65 32 -36 73 -74 92 -86 38 -24
31 -39 -20 -39 l-28 0 17 -32 c9 -18 26 -43 37 -55 23 -25 19 -27 -37 -14
l-39 10 6 -62 c6 -67 -2 -127 -18 -130 -5 -1 -11 8 -13 20 -3 23 -29 50 -38
40 -3 -3 -8 -33 -11 -67 -4 -43 -9 -58 -16 -51 -17 17 -24 13 -47 -24 l-21
-35 31 -57 c17 -32 45 -75 63 -97 l33 -38 89 -3 c50 -1 113 -8 140 -15 124
-31 307 -140 389 -231 87 -96 146 -246 146 -369 l0 -62 103 -98 c56 -54 118
-122 137 -152 l35 -54 20 24 c13 15 37 27 61 31 l39 7 -92 33 c-125 45 -155
81 -133 161 8 29 21 47 43 60 40 25 55 25 159 1 151 -35 158 -35 158 -9 0 22
-2 23 -80 20 -74 -3 -81 -2 -105 22 -20 21 -25 35 -25 79 0 29 5 58 12 65 7 7
31 12 55 12 48 0 61 23 19 34 -36 9 -56 33 -56 70 0 42 16 56 61 56 22 0 64
14 105 35 38 19 76 35 84 35 20 0 73 -56 130 -135 24 -33 56 -74 70 -91 20
-23 29 -48 35 -90 4 -34 16 -69 28 -87 19 -25 22 -42 23 -138 l0 -108 39 -56
c52 -76 65 -134 65 -286 l0 -127 -71 -93 c-187 -246 -398 -472 -474 -509 -58
-28 -155 -42 -235 -35 -94 9 -228 33 -287 50 -66 20 -174 117 -205 186 -20 43
-36 58 -121 115 -55 36 -105 63 -112 60 -32 -12 -226 -182 -229 -200 -2 -12
-11 -61 -20 -109 l-17 -89 25 -41 c13 -23 36 -53 50 -66 28 -26 26 -41 -5 -41
-25 0 -24 -8 5 -61 13 -24 30 -64 36 -89 12 -47 63 -135 83 -144 7 -4 -13 -4
-45 -1 l-56 5 14 -53 c7 -28 25 -109 39 -180 28 -139 42 -180 115 -337 27 -58
52 -125 56 -150 l7 -45 -24 21 c-26 23 -90 64 -100 64 -4 0 4 -33 17 -74 74
-234 85 -411 39 -626 -18 -83 -29 -166 -29 -215 0 -73 4 -89 42 -176 28 -63
56 -109 82 -134 22 -22 40 -43 40 -48 0 -5 -16 -7 -36 -5 l-36 4 6 -40 c3 -23
9 -83 12 -133 l7 -93 -1033 0 -1033 0 6 61 c4 50 2 64 -13 79 -37 37 -38 193
-1 434 17 113 15 130 -8 102 -12 -14 -60 -30 -67 -23 -2 2 3 23 11 47 9 24 21
96 27 159 9 97 8 143 -5 281 -24 229 -23 252 12 314 16 28 32 67 35 88 8 43
-3 120 -15 112 -5 -3 -23 -29 -39 -57 -35 -62 -36 -58 -10 51 22 90 32 116 61
147 10 11 30 61 44 110 14 50 39 119 55 154 27 57 30 73 30 166 0 58 6 122 14
148 l14 45 -45 0 c-25 0 -47 3 -50 5 -3 3 14 23 38 44 46 42 139 149 139 162
0 4 -42 15 -92 24 -207 36 -386 108 -474 189 -24 22 -65 69 -90 104 -80 113
-217 205 -379 254 -89 27 -137 53 -150 79 -6 14 -19 21 -38 21 -35 0 -75 39
-83 79 -5 23 -18 37 -58 59 -57 33 -102 74 -111 103 -4 11 -27 29 -52 41 -65
31 -86 68 -78 141 9 83 20 106 60 122 83 35 165 5 165 -60 0 -32 13 -45 46
-45 31 0 11 40 -48 96 -73 68 -98 101 -98 128 0 31 36 97 76 139 43 45 79 48
123 11 37 -31 42 -79 12 -115 -17 -21 -17 -25 -4 -46 24 -36 94 -83 124 -83
15 0 62 -20 105 -45 84 -48 122 -55 149 -29 20 20 13 79 -16 136 -24 47 -24
65 1 106 37 60 78 37 144 -81 32 -57 40 -85 52 -174 23 -178 48 -210 201 -254
53 -15 248 -49 283 -49 4 0 15 28 24 62 23 83 79 188 132 247 l42 47 -19 55
c-22 65 -25 191 -5 264 31 117 117 237 233 323 95 72 178 104 277 108 l79 3
23 38 22 38 -80 45 c-45 25 -103 65 -129 91 -64 59 -64 83 -4 142 45 45 57 81
34 104 -18 18 -3 31 44 38 83 13 103 24 122 64 18 40 15 54 -27 113 -17 24 14
88 42 88 23 0 24 1 8 35 -16 36 -1 48 75 60 l62 10 5 45 5 45 70 5 69 5 -34
32 c-35 33 -61 46 -115 58 l-30 7 29 15 c29 15 128 14 168 -2 13 -5 21 2 33
32 25 60 64 110 98 127 46 23 48 21 27 -26z m630 -7343 l0 -495 -294 0 -294 0
14 29 c27 55 -7 121 -62 121 -34 0 -46 -24 -42 -82 1 -29 -2 -55 -7 -58 -5 -3
-19 20 -30 51 -24 68 -43 90 -95 114 -48 22 -50 41 -10 77 18 16 30 36 30 51
0 96 -95 156 -179 112 -35 -17 -41 -32 -41 -95 0 -27 -5 -52 -11 -56 -18 -11
-57 38 -70 88 -19 69 12 190 58 234 45 42 46 67 1 43 -21 -11 -21 -10 -14 55
7 70 -4 88 -22 34 l-10 -33 -1 38 c-1 26 -5 37 -13 35 -8 -3 -12 -19 -10 -41
4 -45 -5 -48 -19 -7 -15 43 -31 38 -23 -7 l7 -38 -21 25 c-12 14 -21 20 -22
15 0 -6 5 -16 12 -23 6 -6 14 -32 18 -58 6 -41 3 -56 -24 -113 -26 -56 -32
-80 -34 -159 -4 -83 -1 -98 22 -145 37 -77 56 -135 56 -173 l0 -34 -325 0
-325 0 0 495 0 495 890 0 890 0 0 -495z m-1470 -3405 c0 -5 -11 -10 -25 -10
-24 0 -25 -3 -25 -60 0 -47 -3 -60 -15 -60 -12 0 -15 13 -15 60 0 53 -2 60
-20 60 -11 0 -20 5 -20 10 0 6 27 10 60 10 33 0 60 -4 60 -10z m90 -20 c0 -28
3 -30 35 -30 32 0 35 2 35 30 0 20 5 30 15 30 12 0 15 -14 15 -70 0 -56 -3
-70 -15 -70 -10 0 -15 10 -15 30 0 28 -3 30 -35 30 -32 0 -35 -2 -35 -30 0
-20 -5 -30 -15 -30 -12 0 -15 14 -15 70 0 56 3 70 15 70 10 0 15 -10 15 -30z
m280 20 c0 -5 -18 -10 -40 -10 -33 0 -40 -3 -40 -20 0 -17 7 -20 40 -20 22 0
40 -4 40 -10 0 -5 -18 -10 -41 -10 -33 0 -40 -3 -37 -17 2 -13 14 -19 41 -21
57 -5 44 -22 -18 -22 l-55 0 0 70 0 70 55 0 c30 0 55 -4 55 -10z m190 -20 c0
-28 3 -30 35 -30 32 0 35 2 35 30 0 20 5 30 15 30 12 0 15 -14 15 -70 0 -56
-3 -70 -15 -70 -10 0 -15 10 -15 30 0 28 -3 30 -35 30 -32 0 -35 -2 -35 -30 0
-17 -5 -30 -12 -30 -13 0 -22 99 -13 128 8 24 25 12 25 -18z m202 -21 c3 -55
21 -78 52 -66 12 5 16 20 16 62 0 42 3 55 15 55 11 0 15 -13 15 -53 0 -65 -16
-90 -59 -90 -45 0 -64 23 -69 87 -4 46 -2 56 11 56 12 0 17 -13 19 -51z m200
-6 l3 -58 38 -3 c55 -5 45 -22 -13 -22 l-50 0 0 70 c0 84 18 94 22 13z m175
44 c-3 -8 -2 -20 3 -27 6 -9 12 -6 25 14 10 14 27 26 38 26 19 0 18 -3 -10
-32 l-32 -33 31 -34 c39 -43 19 -56 -23 -15 l-29 28 0 -27 c0 -17 -5 -27 -15
-27 -12 0 -15 14 -15 70 0 58 3 70 16 70 9 0 14 -6 11 -13z"/>
</g>
</svg>
